<svg width="100" height="100" viewBox="0 0 100 100" fill="none" xmlns="http://www.w3.org/2000/svg">
<path fill-rule="evenodd" clip-rule="evenodd" d="M39.8926 50.8301C39.9595 58.6106 40.0246 66.4068 40.0879 74.2188C40.0396 75.7273 39.9744 77.241 39.8926 78.7598C39.8926 78.6621 39.8926 78.5645 39.8926 78.4668C39.8926 69.2546 39.8926 60.0423 39.8926 50.8301Z" fill="#D1B8A3"/>
<path fill-rule="evenodd" clip-rule="evenodd" d="M28.7599 78.4668C28.7924 67.7244 28.7599 56.9822 28.6622 46.2402C27.759 46.7487 26.8639 47.2695 25.9767 47.8027C25.9377 47.7805 25.9215 47.7479 25.9279 47.7051C26.8426 47.1188 27.7866 46.5655 28.7599 46.0449C28.89 56.8685 28.89 67.6757 28.7599 78.4668Z" fill="#F8F1E8"/>
<path fill-rule="evenodd" clip-rule="evenodd" d="M73.877 50.1465C74.1141 50.216 74.3419 50.3137 74.5605 50.4395C74.5931 54.8991 74.6257 59.3587 74.6582 63.8184C74.6582 68.311 74.5931 72.7707 74.4629 77.1973C74.4786 68.3402 74.4624 59.4535 74.4141 50.5371C74.1517 50.4251 73.9726 50.2949 73.877 50.1465Z" fill="#F3E8DE"/>
<path fill-rule="evenodd" clip-rule="evenodd" d="M45.0683 30.4199C45.093 46.5001 45.093 62.5808 45.0683 78.6621C44.9382 62.5813 44.9382 46.5007 45.0683 30.4199Z" fill="#F6EEE4"/>
<path fill-rule="evenodd" clip-rule="evenodd" d="M77.002 49.1699C77.0622 49.1808 77.111 49.2133 77.1484 49.2676C77.1648 57.6565 77.2137 66.0388 77.2949 74.4141C77.2503 74.4545 77.2177 74.5033 77.1973 74.5605C77.297 74.5564 77.3946 74.5564 77.4902 74.5605C77.4254 74.7546 77.3114 74.9174 77.1484 75.0488C77.1031 74.9908 77.0868 74.9257 77.0996 74.8535C77.0996 66.4876 77.0996 58.1218 77.0996 49.7559C77.0979 49.5542 77.0654 49.3589 77.002 49.1699Z" fill="#FDFEFD"/>
<path fill-rule="evenodd" clip-rule="evenodd" d="M39.7949 48.7793C39.8917 49.4446 39.9243 50.1282 39.8926 50.8301C39.8926 60.0423 39.8926 69.2546 39.8926 78.4668C39.8204 78.4796 39.7553 78.4633 39.6973 78.418C39.7948 68.5453 39.8273 58.6657 39.7949 48.7793Z" fill="#FDFEFE"/>
<path fill-rule="evenodd" clip-rule="evenodd" d="M73.877 50.146C73.9726 50.2944 74.1517 50.4246 74.4141 50.5366C74.4624 59.453 74.4786 68.3397 74.4629 77.1968C73.9243 77.5472 73.3384 77.8238 72.7051 78.0269C71.7074 78.3045 70.6984 78.5324 69.6778 78.7105C67.213 78.7912 64.7553 78.775 62.3047 78.6616C62.2396 69.0262 62.2396 59.3908 62.3047 49.7554C63.6802 48.9455 65.0637 48.148 66.4551 47.3628C66.7678 47.218 67.0934 47.1854 67.4317 47.2651C69.5774 48.2571 71.7258 49.2174 73.877 50.146Z" fill="white"/>
<path fill-rule="evenodd" clip-rule="evenodd" d="M28.7598 78.4668C27.5409 78.1963 26.4179 77.708 25.3906 77.002C25.3255 67.3665 25.3255 57.7312 25.3906 48.0957C25.5285 47.9051 25.7075 47.7749 25.9278 47.7051C25.9214 47.7479 25.9376 47.7805 25.9766 47.8027C26.8638 47.2695 27.7589 46.7487 28.6621 46.2402C28.7598 56.9822 28.7923 67.7244 28.7598 78.4668Z" fill="white"/>
<path fill-rule="evenodd" clip-rule="evenodd" d="M31.7871 45.459C34.2559 46.5371 36.7623 47.53 39.3066 48.4375C39.5101 48.5056 39.6729 48.6195 39.7949 48.7793C39.8273 58.6657 39.7948 68.5453 39.6972 78.418C39.7552 78.4633 39.8204 78.4796 39.8925 78.4668C39.8925 78.5645 39.8925 78.6621 39.8925 78.7598C39.86 78.7598 39.8274 78.7598 39.7949 78.7598C39.8077 78.6876 39.7913 78.6225 39.746 78.5645C37.0352 78.6616 34.317 78.6941 31.5917 78.6621C31.5272 67.5738 31.5922 56.5061 31.7871 45.459Z" fill="white"/>
<path fill-rule="evenodd" clip-rule="evenodd" d="M31.7871 45.4594C31.5923 56.5064 31.5273 67.5742 31.5918 78.6625C34.3171 78.6945 37.0353 78.662 39.7461 78.5648C39.7914 78.6228 39.8077 78.688 39.7949 78.7601C37.0538 78.8902 34.3031 78.8902 31.543 78.7601C31.4942 67.6273 31.4778 56.4945 31.4942 45.3617C31.6202 45.3386 31.7179 45.3711 31.7871 45.4594Z" fill="#FDFCFA"/>
<path fill-rule="evenodd" clip-rule="evenodd" d="M59.7168 33.252C59.8276 48.3883 59.8438 63.525 59.7656 78.6621C59.7168 78.7109 59.668 78.7598 59.6192 78.8086C58.3748 78.8879 57.1378 78.8717 55.9082 78.7598C55.8919 76.0903 55.9082 73.421 55.957 70.752C56.0059 73.3885 56.0222 76.0252 56.0059 78.6621C57.2103 78.6621 58.4148 78.6621 59.6192 78.6621C59.5866 63.509 59.6192 48.3723 59.7168 33.252Z" fill="#FAF7F4"/>
<path fill-rule="evenodd" clip-rule="evenodd" d="M79.541 31.1035C79.5573 43.7338 79.541 56.364 79.4922 68.9941C79.3613 69.9902 79.1498 70.9668 78.8574 71.9238C78.7965 71.8831 78.764 71.818 78.7598 71.7285C79.2041 70.3647 79.4156 68.965 79.3945 67.5293C79.4108 55.371 79.4597 43.2291 79.541 31.1035Z" fill="#FDFDFC"/>
<path fill-rule="evenodd" clip-rule="evenodd" d="M45.0684 30.4199C44.9382 46.5007 44.9382 62.5813 45.0684 78.6621C45.0575 78.7224 45.025 78.7712 44.9707 78.8086C44.1575 78.8574 43.3438 78.8736 42.5293 78.8574C42.4486 68.3783 42.3997 57.8966 42.3828 47.4121C42.1259 47.0626 41.7841 46.8185 41.3574 46.6797C39.7337 46.0637 38.1061 45.4451 36.4746 44.8242C36.3933 44.7429 36.3118 44.6614 36.2305 44.5801C36.1654 40.4785 36.1654 36.377 36.2305 32.2754C39.0481 30.4758 41.9126 28.7506 44.8242 27.0996C44.8996 27.1138 44.9648 27.1463 45.0196 27.1973C45.0684 28.271 45.0847 29.3452 45.0684 30.4199Z" fill="white"/>
<path fill-rule="evenodd" clip-rule="evenodd" d="M47.8028 27.002C51.6716 28.8551 55.5128 30.7919 59.3262 32.8125C59.5347 32.898 59.665 33.0445 59.7168 33.252C59.6192 48.3723 59.5867 63.509 59.6192 78.6621C58.4148 78.6621 57.2103 78.6621 56.0059 78.6621C56.0222 76.0252 56.0059 73.3885 55.9571 70.752C55.9083 73.421 55.8919 76.0903 55.9083 78.7598C55.827 75.5536 55.7782 72.331 55.7618 69.0918C55.5561 68.638 55.2143 68.3287 54.7364 68.1641C53.5295 67.789 52.3251 67.3983 51.1231 66.9922C50.9603 66.9271 50.7976 66.9271 50.6348 66.9922C50.4784 67.1812 50.3644 67.3927 50.293 67.627C50.2411 69.0925 50.2574 70.5573 50.3418 72.0215C50.2563 72.0087 50.1912 72.0412 50.1465 72.1191C50.2431 74.2957 50.2757 76.4767 50.2442 78.6621C49.3653 78.6621 48.4864 78.6621 47.6075 78.6621C47.5427 61.4217 47.6078 44.2016 47.8028 27.002Z" fill="white"/>
<path fill-rule="evenodd" clip-rule="evenodd" d="M52.7831 69.8734C53.0736 69.8545 53.3178 69.9522 53.5155 70.1663C53.5806 72.8682 53.5806 75.57 53.5155 78.2718C53.3834 78.3875 53.2694 78.5178 53.1737 78.6624C52.9848 78.6233 52.8384 78.5256 52.7343 78.3695C52.6545 75.5333 52.6708 72.7013 52.7831 69.8734Z" fill="white"/>
<path fill-rule="evenodd" clip-rule="evenodd" d="M47.5098 27.002C47.6074 27.002 47.7051 27.002 47.8027 27.002C47.6077 44.2016 47.5427 61.4217 47.6074 78.6621C48.4863 78.6621 49.3652 78.6621 50.2441 78.6621C50.2757 76.4767 50.2431 74.2957 50.1465 72.1191C50.1911 72.0412 50.2562 72.0087 50.3418 72.0215C50.4318 74.2019 50.448 76.3828 50.3906 78.5645C50.3541 78.6539 50.3053 78.7354 50.2441 78.8086C49.3251 78.8872 48.4137 78.8709 47.5098 78.7598C47.5098 61.5071 47.5098 44.2546 47.5098 27.002Z" fill="#FCFBFA"/>
<path fill-rule="evenodd" clip-rule="evenodd" d="M69.8731 20.7519C75.7532 21.6965 78.9759 25.1469 79.541 31.1035C79.4597 43.2291 79.4109 55.371 79.3945 67.5293C79.4156 68.965 79.2041 70.3647 78.7598 71.7285C78.764 71.8179 78.7965 71.8831 78.8574 71.9238C78.5276 72.8767 78.0719 73.7556 77.4902 74.5605C77.3946 74.5564 77.297 74.5564 77.1973 74.5605C77.2177 74.5033 77.2503 74.4545 77.2949 74.414C77.2137 66.0387 77.1649 57.6565 77.1484 49.2675C77.111 49.2133 77.0622 49.1807 77.002 49.1699C76.7292 48.8864 76.4037 48.6749 76.0254 48.5351C73.1609 47.2656 70.2962 45.9961 67.4317 44.7265C67.2038 44.6614 66.9759 44.6614 66.7481 44.7265C65.38 45.3779 64.0453 46.0777 62.7442 46.8261C62.4913 46.747 62.3611 46.5679 62.3535 46.289C62.3247 44.3444 62.3573 42.3913 62.4512 40.4297C62.3865 38.288 62.3215 36.1558 62.2559 34.0332C62.2721 33.3163 62.2559 32.6002 62.207 31.8847C62.0755 31.5093 61.8314 31.2489 61.4746 31.1035C56.7606 28.6487 52.0405 26.191 47.3145 23.7304C46.545 23.2528 45.7964 23.2853 45.0684 23.8281C41.6111 26.0152 38.128 28.1636 34.6192 30.2734C34.2797 30.4841 34.0193 30.7607 33.8379 31.1035C33.8443 31.0607 33.828 31.0281 33.7891 31.0058C33.6484 31.2651 33.567 31.5418 33.5449 31.8359C33.5165 35.4148 33.549 38.9793 33.6426 42.5293C33.6376 42.7952 33.6051 43.0556 33.5449 43.3105C33.3775 43.3198 33.2148 43.3523 33.0567 43.4082C32.0984 42.9095 31.0892 42.6003 30.0293 42.4804C28.0762 43.5872 26.1231 44.694 24.1699 45.8008C23.5933 46.1006 23.1701 46.54 22.9004 47.1191C22.9004 47.1842 22.8679 47.2168 22.8027 47.2168C22.8155 47.1446 22.7992 47.0795 22.7539 47.0215C22.7214 47.1191 22.6888 47.2168 22.6563 47.3144C22.6237 56.2988 22.5911 65.2832 22.5586 74.2675C22.4912 74.1466 22.4424 74.1466 22.4121 74.2675C21.2655 72.618 20.5819 70.7952 20.3613 68.7988C20.345 55.9732 20.3613 43.1477 20.4102 30.3222C20.4729 29.9325 20.5217 29.5419 20.5567 29.1504C21.6884 24.6331 24.5204 21.8662 29.0527 20.8496C42.6581 20.7529 56.2649 20.7203 69.8731 20.7519Z" fill="white"/>
<path fill-rule="evenodd" clip-rule="evenodd" d="M69.6776 67.7246C70.4917 67.7844 71.2566 68.0122 71.9726 68.4082C72.0525 69.4411 72.0362 70.4665 71.9237 71.4844C71.1305 71.5424 70.3981 71.3634 69.7265 70.9473C69.6077 69.87 69.5915 68.7958 69.6776 67.7246Z" fill="#98D4FF"/>
<path fill-rule="evenodd" clip-rule="evenodd" d="M65.6738 66.4551C66.4845 66.4593 67.2495 66.6546 67.9687 67.041C68.0781 67.5677 68.1269 68.1048 68.1152 68.6523C68.0989 69.1243 68.0827 69.5964 68.0664 70.0684C68.0252 70.3175 67.8787 70.4478 67.6269 70.459C66.8846 70.275 66.2174 69.9494 65.625 69.4824C65.5461 68.4658 65.5624 67.4567 65.6738 66.4551Z" fill="#98D4FF"/>
<path fill-rule="evenodd" clip-rule="evenodd" d="M34.3263 64.502C35.0275 64.6041 35.7111 64.7831 36.377 65.0391C36.491 65.153 36.6049 65.2669 36.7188 65.3809C36.7988 66.4138 36.7825 67.4392 36.67 68.457C35.8609 68.4704 35.096 68.2914 34.3751 67.9199C34.1963 66.7856 34.18 65.6463 34.3263 64.502Z" fill="#98D4FF"/>
<path fill-rule="evenodd" clip-rule="evenodd" d="M69.6777 60.4003C69.8436 60.3847 70.0064 60.4009 70.1659 60.4491C70.5306 60.6684 70.9212 60.8312 71.3378 60.9374C71.6368 61.041 71.881 61.22 72.0702 61.4745C72.139 62.4858 72.1227 63.4949 72.0214 64.5018C71.1867 64.6249 70.4379 64.4296 69.7753 63.9159C69.6778 62.7458 69.6452 61.5739 69.6777 60.4003Z" fill="#98D4FF"/>
<path fill-rule="evenodd" clip-rule="evenodd" d="M65.6739 59.2285C66.3408 59.2821 66.9918 59.4286 67.627 59.668C67.8014 59.7446 67.9479 59.8585 68.0665 60.0098C68.1465 61.1077 68.1302 62.1982 68.0176 63.2813C67.7898 63.3464 67.5619 63.3464 67.334 63.2813C66.8607 63.0612 66.3724 62.8659 65.8692 62.6953C65.7878 62.614 65.7064 62.5325 65.625 62.4512C65.546 61.3695 65.5624 60.2953 65.6739 59.2285Z" fill="#98D4FF"/>
<path fill-rule="evenodd" clip-rule="evenodd" d="M54.9317 58.0566C55.6275 58.3232 56.3111 58.6162 56.9824 58.9355C57.1114 60.0646 57.1114 61.1877 56.9824 62.3047C56.3044 62.2309 55.6533 62.0355 55.0293 61.7188C54.912 61.6306 54.8306 61.5167 54.7852 61.377C54.72 60.4329 54.72 59.489 54.7852 58.5449C54.8196 58.3743 54.8684 58.2115 54.9317 58.0566Z" fill="#98D4FF"/>
<path fill-rule="evenodd" clip-rule="evenodd" d="M34.1309 57.0801C35.0594 57.1888 35.922 57.4817 36.7188 57.959C36.7989 59.0244 36.7826 60.0823 36.67 61.1328C36.1031 61.1367 35.5497 61.0391 35.0099 60.8398C34.6975 60.757 34.4209 60.6105 34.1798 60.4004C34.001 59.2986 33.9847 58.1919 34.1309 57.0801Z" fill="#98D4FF"/>
<path fill-rule="evenodd" clip-rule="evenodd" d="M50.1465 56.6897C50.932 56.6826 51.6807 56.8453 52.3926 57.178C52.4739 57.2756 52.5554 57.3733 52.6367 57.4709C52.7168 58.6014 52.7006 59.7244 52.5879 60.8401C51.7027 60.8162 50.9051 60.5396 50.1953 60.01C50.1465 58.9037 50.1302 57.7969 50.1465 56.6897Z" fill="#98D4FF"/>
<path fill-rule="evenodd" clip-rule="evenodd" d="M69.6778 53.3691C70.5251 53.5568 71.29 53.9149 71.9727 54.4434C72.0378 55.3874 72.0378 56.3313 71.9727 57.2754C72.0325 57.7229 71.8535 57.902 71.4356 57.8125C70.8465 57.5749 70.2768 57.2982 69.7266 56.9824C69.5514 55.7775 69.5352 54.5731 69.6778 53.3691Z" fill="#98D4FF"/>
<path fill-rule="evenodd" clip-rule="evenodd" d="M65.6738 52.002C66.5249 52.0609 67.2898 52.3539 67.9688 52.8809C68.1112 54.0429 68.1601 55.2147 68.1152 56.3965C67.4515 56.235 66.8004 56.0233 66.1621 55.7617C65.908 55.6755 65.6964 55.529 65.5273 55.3223C65.3694 54.3229 65.3369 53.3138 65.4297 52.2949C65.5317 52.2097 65.6131 52.112 65.6738 52.002Z" fill="#98D4FF"/>
<path fill-rule="evenodd" clip-rule="evenodd" d="M55.0292 50.4395C55.817 50.6299 56.5169 50.988 57.1288 51.5137C57.208 52.625 57.1918 53.7317 57.08 54.834C56.8924 54.9454 56.6971 54.9617 56.4941 54.8828C56.06 54.586 55.6042 54.3256 55.1269 54.1016C54.8106 53.7218 54.6803 53.2823 54.7362 52.7832C54.7872 52.0672 54.836 51.3511 54.8827 50.6348C54.9527 50.5816 55.0016 50.5165 55.0292 50.4395Z" fill="#98D4FF"/>
<path fill-rule="evenodd" clip-rule="evenodd" d="M34.0333 50.0488C34.6931 50.1437 35.3441 50.2901 35.9864 50.4883C36.2339 50.5387 36.4454 50.6526 36.6212 50.8301C36.777 51.8646 36.8095 52.9062 36.7189 53.9551C36.67 54.0039 36.6212 54.0527 36.5724 54.1016C35.6502 54.0437 34.8201 53.7345 34.0821 53.1738C33.9102 52.1306 33.8939 51.0889 34.0333 50.0488Z" fill="#98D4FF"/>
<path fill-rule="evenodd" clip-rule="evenodd" d="M50.2441 48.7793C50.8493 48.8888 51.4353 49.0678 52.002 49.3164C52.2058 49.3938 52.3849 49.5077 52.5391 49.6582C52.6488 50.2339 52.6977 50.8198 52.6856 51.416C52.6845 51.9608 52.652 52.4979 52.5879 53.0273C52.4251 53.0925 52.2624 53.0925 52.0996 53.0273C51.4852 52.8418 50.8992 52.5977 50.3418 52.2949C50.2834 52.1685 50.2346 52.0383 50.1953 51.9043C50.1164 50.8552 50.1326 49.8135 50.2441 48.7793Z" fill="#98D4FF"/>
<path fill-rule="evenodd" clip-rule="evenodd" d="M54.9317 42.7246C55.493 42.9064 56.0464 43.1181 56.5918 43.3594C56.836 43.4733 57.015 43.6523 57.1289 43.8965C57.1941 44.873 57.1941 45.8496 57.1289 46.8262C57.0924 46.9156 57.0436 46.9971 56.9824 47.0703C56.1876 46.9746 55.4552 46.6979 54.7852 46.2402C54.72 45.166 54.72 44.0918 54.7852 43.0176C54.8353 42.9173 54.8841 42.8196 54.9317 42.7246Z" fill="#98D4FF"/>
<path fill-rule="evenodd" clip-rule="evenodd" d="M41.4551 41.1626C41.6472 41.1392 41.8263 41.1718 41.9922 41.2602C42.0573 42.2043 42.0573 43.1482 41.9922 44.0923C41.5188 44.7275 40.884 45.0042 40.0879 44.9224C39.9366 44.8038 39.8228 44.6573 39.7461 44.4829C39.681 43.7342 39.681 42.9855 39.7461 42.2368C39.8228 42.0624 39.9366 41.9159 40.0879 41.7974C40.5407 41.5543 40.9965 41.3427 41.4551 41.1626Z" fill="#98D4FF"/>
<path fill-rule="evenodd" clip-rule="evenodd" d="M50.3417 41.1621C51.15 41.274 51.8825 41.567 52.539 42.041C52.6812 43.1378 52.73 44.2445 52.6855 45.3613C51.8442 45.3181 51.0792 45.0576 50.3906 44.5801C50.2136 43.4429 50.1973 42.3035 50.3417 41.1621Z" fill="#98D4FF"/>
<path fill-rule="evenodd" clip-rule="evenodd" d="M61.4746 31.1035C61.8313 31.2489 62.0755 31.5094 62.207 31.8848C62.2559 32.6002 62.2721 33.3163 62.2559 34.0332C62.2559 38.3301 62.2559 42.627 62.2559 46.9238C62.1745 41.9598 62.1257 36.9793 62.1094 31.9824C61.9521 31.6467 61.7405 31.3537 61.4746 31.1035Z" fill="#CEB39B"/>
<path fill-rule="evenodd" clip-rule="evenodd" d="M41.2598 33.5449C41.5424 33.5002 41.7865 33.5653 41.9922 33.7402C42.0573 34.7819 42.0573 35.8235 41.9922 36.8652C41.4964 37.268 40.9593 37.6098 40.3809 37.8906C40.1531 37.9557 39.9251 37.9557 39.6973 37.8906C39.6362 37.8174 39.5873 37.7359 39.5508 37.6465C39.4857 36.6374 39.4857 35.6282 39.5508 34.6191C40.0856 34.1975 40.6553 33.8395 41.2598 33.5449Z" fill="#98D4FF"/>
<path fill-rule="evenodd" clip-rule="evenodd" d="M54.9316 35.2051C55.5446 35.3321 56.1306 35.5437 56.6894 35.8398C56.8916 35.9324 57.0381 36.0789 57.1289 36.2793C57.194 37.321 57.194 38.3626 57.1289 39.4043C56.842 39.6356 56.5328 39.652 56.2012 39.4531C55.7041 39.2619 55.2646 38.9852 54.8828 38.623C54.8056 37.4792 54.8219 36.3399 54.9316 35.2051Z" fill="#98D4FF"/>
<path fill-rule="evenodd" clip-rule="evenodd" d="M50.4394 33.4473C51.2505 33.5352 51.9829 33.8281 52.6367 34.3262C52.7803 35.3313 52.8128 36.3405 52.7343 37.3535C52.6978 37.443 52.649 37.5244 52.5878 37.5977C51.841 37.5102 51.1412 37.266 50.4882 36.8652C50.3113 35.728 50.295 34.5887 50.4394 33.4473Z" fill="#98D4FF"/>
<path fill-rule="evenodd" clip-rule="evenodd" d="M62.2559 34.0332C62.3215 36.1559 62.3865 38.288 62.4512 40.4297C62.3573 42.3913 62.3247 44.3444 62.3535 46.2891C62.3611 46.568 62.4913 46.7471 62.7441 46.8262C62.5862 46.8787 62.4234 46.9112 62.2559 46.9238C62.2559 42.627 62.2559 38.3301 62.2559 34.0332Z" fill="#FDFDFC"/>
<path fill-rule="evenodd" clip-rule="evenodd" d="M33.8379 31.1035C33.7413 35.266 33.7088 39.4327 33.7402 43.6035C33.5038 43.5666 33.276 43.5015 33.0566 43.4082C33.2147 43.3523 33.3774 43.3198 33.5449 43.3105C33.6051 43.0557 33.6376 42.7952 33.6426 42.5293C33.549 38.9793 33.5165 35.4148 33.5449 31.8359C33.567 31.5418 33.6483 31.2651 33.7891 31.0059C33.828 31.0281 33.8442 31.0607 33.8379 31.1035Z" fill="#FDFDFC"/>
<path fill-rule="evenodd" clip-rule="evenodd" d="M69.873 20.752C56.2648 20.7203 42.6581 20.7529 29.0527 20.8496C29.1945 20.7713 29.3572 20.7225 29.541 20.7031C36.2956 20.6868 43.0501 20.6706 49.8047 20.6543C56.6283 20.654 63.3178 20.6865 69.873 20.752Z" fill="#CEB39A"/>
</svg>
